<?xml version="1.0" standalone="no"?>
<!DOCTYPE svg PUBLIC "-//W3C//DTD SVG 20010904//EN"
 "http://www.w3.org/TR/2001/REC-SVG-20010904/DTD/svg10.dtd">
<svg version="1.0" xmlns="http://www.w3.org/2000/svg"
 width="400px" height="400px" viewBox="0 0 400 400"
 preserveAspectRatio="xMidYMid meet">
<g transform="translate(0,400) scale(0.100000,-0.100000)"
fill="#000000" stroke="none">
<path d="M2771 3785 c-21 -61 -49 -155 -60 -210 -12 -55 -31 -131 -42 -169
-12 -39 -33 -129 -48 -200 l-27 -131 -155 -8 c-385 -19 -585 -37 -691 -61
l-107 -25 -58 20 c-95 34 -115 47 -198 135 -54 56 -88 84 -103 84 -30 0 -28
-20 8 -74 45 -66 113 -130 176 -163 l56 -30 -49 -13 c-75 -21 -230 -87 -322
-136 -46 -25 -85 -44 -87 -42 -2 2 20 40 48 84 78 122 168 281 168 297 0 16
-53 39 -73 31 -7 -2 -34 -41 -61 -87 -91 -152 -219 -341 -305 -447 -38 -47
-137 -130 -151 -126 -10 2 -285 -272 -334 -334 -101 -126 -203 -299 -246 -418
-33 -91 -68 -222 -70 -267 -5 -76 -3 -81 61 -120 58 -36 63 -37 124 -30 35 3
88 13 117 21 111 32 364 94 381 94 24 0 22 -12 -17 -83 -19 -34 -55 -109 -81
-167 -25 -58 -55 -122 -66 -143 -30 -59 -25 -83 20 -106 21 -11 41 -17 44 -14
4 3 17 -1 30 -10 13 -8 61 -27 108 -42 73 -24 100 -28 209 -28 107 0 138 4
214 27 144 44 276 96 356 141 41 23 146 79 233 124 283 146 600 371 788 560
124 126 293 331 351 426 70 116 140 266 129 278 -7 9 -2 13 17 14 45 4 629 21
740 22 98 1 104 2 127 27 27 29 34 74 12 74 -7 0 -48 34 -90 75 -43 41 -84 75
-92 75 -20 0 -91 88 -178 220 -42 63 -107 160 -144 215 -37 55 -105 163 -152
240 -46 77 -106 169 -133 204 -27 35 -60 86 -75 114 -14 28 -46 83 -72 123
l-46 73 -72 -2 -73 -2 -39 -110z m201 -94 c25 -47 69 -120 99 -161 30 -42 74
-109 99 -149 47 -78 179 -276 281 -423 33 -47 116 -155 184 -240 74 -93 118
-155 111 -159 -6 -4 -130 -10 -276 -13 -253 -7 -363 -19 -412 -47 -12 -6 -24
-5 -38 3 -26 16 -26 15 -101 -127 -75 -145 -118 -210 -220 -335 -159 -198
-319 -347 -512 -481 -266 -183 -264 -182 -497 -304 -96 -51 -209 -110 -250
-133 -41 -22 -145 -64 -230 -93 -137 -46 -167 -53 -257 -57 -104 -5 -198 7
-260 33 l-32 14 25 63 c14 35 52 115 83 178 32 63 61 126 66 140 4 14 14 39
21 56 13 28 12 34 -9 75 l-24 44 -73 -2 c-49 -1 -152 -22 -321 -63 -149 -37
-257 -59 -270 -55 -26 8 -23 32 22 180 37 121 117 277 209 405 97 136 310 348
445 442 220 154 428 270 585 326 146 51 427 112 567 122 255 19 529 32 578 26
28 -3 66 -3 86 0 l35 6 42 192 c73 329 83 370 97 392 8 12 24 68 36 125 11 57
24 115 27 128 l5 24 17 -23 c10 -13 38 -62 62 -109z"/>
<path d="M1833 2324 c-10 -26 5 -114 28 -162 12 -25 51 -75 86 -112 34 -37 63
-70 63 -73 0 -3 -26 -16 -57 -28 -46 -18 -80 -22 -163 -23 -120 -1 -172 14
-247 71 -36 27 -48 32 -54 21 -17 -25 -9 -42 42 -90 118 -111 232 -130 474
-80 51 11 114 51 121 78 8 33 -32 106 -76 136 -56 39 -119 123 -126 168 -4 23
-19 54 -38 75 -35 39 -44 42 -53 19z"/>
<path d="M611 2074 c-42 -37 -42 -37 -36 -88 10 -78 14 -87 51 -102 71 -30
150 -12 193 42 26 33 27 58 1 94 -23 32 -117 90 -147 90 -11 0 -39 -16 -62
-36z"/>
</g>
</svg>
